<svg height="150" version="1.1" width="175"
    xmlns="http://www.w3.org/2000/svg"
    xmlns:xlink="http://www.w3.org/1999/xlink" style="overflow: hidden; position: absolute;">
    <rect x="1" y="7" width="168" height="140" rx="0" ry="0" fill="#000000" stroke="#000000" class="draw2d_shape_composite_Group" stroke-opacity="0" stroke-width="1" fill-opacity="0" stroke-dasharray="none" opacity="1" style="-webkit-tap-highlight-color: rgba(0, 0, 0, 0); opacity: 1; cursor: default;"></rect>
    <rect x="-2" y="4" width="174" height="146" rx="0" ry="0" fill="#000000" stroke="#2c70ff" class="draw2d_shape_basic_Rectangle" stroke-opacity="1" stroke-width="1" fill-opacity="0" stroke-dasharray="none" opacity="0" transform="matrix(1,0,0,1,0,0)" style="-webkit-tap-highlight-color: rgba(0, 0, 0, 0); opacity: 0;"></rect>
    <rect x="-9" y="147" width="10" height="10" rx="1" ry="1" fill="none" stroke="#a0a0a0" type="7" class="draw2d_ResizeHandle" opacity="0" fill-opacity="1" stroke-opacity="1" stroke-width="0.5" stroke-dasharray="none" transform="matrix(1,0,0,1,0,0)" style="-webkit-tap-highlight-color: rgba(0, 0, 0, 0); cursor: default; opacity: 0; fill-opacity: 1;"></rect>
    <rect x="169" y="147" width="10" height="10" rx="1" ry="1" fill="none" stroke="#a0a0a0" type="5" class="draw2d_ResizeHandle" opacity="0" fill-opacity="1" stroke-opacity="1" stroke-width="0.5" stroke-dasharray="none" transform="matrix(1,0,0,1,0,0)" style="-webkit-tap-highlight-color: rgba(0, 0, 0, 0); cursor: default; opacity: 0; fill-opacity: 1;"></rect>
    <rect x="169" y="-3" width="10" height="10" rx="1" ry="1" fill="none" stroke="#a0a0a0" type="3" class="draw2d_ResizeHandle" opacity="0" fill-opacity="1" stroke-opacity="1" stroke-width="0.5" stroke-dasharray="none" transform="matrix(1,0,0,1,0,0)" style="-webkit-tap-highlight-color: rgba(0, 0, 0, 0); cursor: default; opacity: 0; fill-opacity: 1;"></rect>
    <rect x="-9" y="-3" width="10" height="10" rx="1" ry="1" fill="none" stroke="#a0a0a0" type="1" class="draw2d_ResizeHandle" opacity="0" fill-opacity="1" stroke-opacity="1" stroke-width="0.5" stroke-dasharray="none" transform="matrix(1,0,0,1,0,0)" style="-webkit-tap-highlight-color: rgba(0, 0, 0, 0); cursor: default; opacity: 0; fill-opacity: 1;"></rect>
    <rect x="1" y="7" width="168" height="140" rx="15" ry="15" fill="#B2CD93" stroke="#1b1b1b" class="draw2d_shape_basic_Rectangle" stroke-opacity="1" stroke-width="1" fill-opacity="1" stroke-dasharray="none" opacity="1" transform="matrix(1,0,0,1,0,0)" style="-webkit-tap-highlight-color: rgba(0, 0, 0, 0); opacity: 1; cursor: move;"></rect>
    <rect x="5" y="18" width="29" height="120" rx="10" ry="10" fill="#5C9AD1" stroke="#1b1b1b" class="draw2d_shape_basic_Rectangle" stroke-opacity="1" stroke-width="1" fill-opacity="1" stroke-dasharray="none" opacity="1" transform="matrix(1,0,0,1,0,0)" style="-webkit-tap-highlight-color: rgba(0, 0, 0, 0); opacity: 1; cursor: move;"></rect>
    <rect x="135" y="15" width="30" height="124" rx="10" ry="10" fill="#5C9AD1" stroke="#1b1b1b" class="draw2d_shape_basic_Rectangle" stroke-opacity="1" stroke-width="1" fill-opacity="1" stroke-dasharray="none" opacity="1" transform="matrix(1,0,0,1,0,0)" style="-webkit-tap-highlight-color: rgba(0, 0, 0, 0); opacity: 1; cursor: move;"></rect>
    <rect x="88" y="59" width="30" height="27" rx="4" ry="4" fill="#ffffff" stroke="#1b1b1b" class="draw2d_shape_basic_Rectangle" stroke-opacity="1" stroke-width="1" fill-opacity="1" stroke-dasharray="none" opacity="1" transform="matrix(1,0,0,1,0,0)" style="-webkit-tap-highlight-color: rgba(0, 0, 0, 0); opacity: 1; cursor: move;"></rect>
    <rect x="51" y="59" width="32" height="28" rx="4" ry="4" fill="#ffffff" stroke="#1b1b1b" class="draw2d_shape_basic_Rectangle" stroke-opacity="1" stroke-width="1" fill-opacity="1" stroke-dasharray="none" opacity="1" transform="matrix(1,0,0,1,0,0)" style="-webkit-tap-highlight-color: rgba(0, 0, 0, 0); opacity: 1; cursor: move;"></rect>
    <rect x="131" y="22" width="10" height="111" rx="0" ry="0" fill="#ffffff" stroke="#1b1b1b" class="draw2d_shape_basic_Rectangle" stroke-opacity="1" stroke-width="1" fill-opacity="1" stroke-dasharray="none" opacity="1" transform="matrix(1,0,0,1,0,0)" style="-webkit-tap-highlight-color: rgba(0, 0, 0, 0); opacity: 1; cursor: move;"></rect>
    <rect x="28" y="23" width="10" height="110" rx="0" ry="0" fill="#ffffff" stroke="#1b1b1b" class="draw2d_shape_basic_Rectangle" stroke-opacity="1" stroke-width="1" fill-opacity="1" stroke-dasharray="none" opacity="1" transform="matrix(1,0,0,1,0,0)" style="-webkit-tap-highlight-color: rgba(0, 0, 0, 0); opacity: 1; cursor: move;"></rect>
    <rect x="120" y="25" width="16" height="106" rx="10" ry="10" fill="#ffffff" stroke="#1b1b1b" class="draw2d_shape_basic_Rectangle" stroke-opacity="1" stroke-width="1" fill-opacity="1" stroke-dasharray="none" opacity="1" transform="matrix(1,0,0,1,0,0)" style="-webkit-tap-highlight-color: rgba(0, 0, 0, 0); opacity: 1; cursor: move;"></rect>
    <rect x="34" y="25" width="16" height="106" rx="10" ry="10" fill="#ffffff" stroke="#1b1b1b" class="draw2d_shape_basic_Rectangle" stroke-opacity="1" stroke-width="1" fill-opacity="1" stroke-dasharray="none" opacity="1" transform="matrix(1,0,0,1,0,0)" style="-webkit-tap-highlight-color: rgba(0, 0, 0, 0); opacity: 1; cursor: move;"></rect>
    <rect x="89" y="61" width="27" height="25" rx="0" ry="0" fill="#000000" stroke="none" class="draw2d_shape_icon_Import" stroke-width="0" fill-opacity="0" stroke-dasharray="none" opacity="1" style="-webkit-tap-highlight-color: rgba(0, 0, 0, 0); opacity: 1; cursor: move;"></rect>
    <path fill="red" stroke="none" d="M15.067,2.25C9.088000000000001,2.25,4.032,6.16,2.2889999999999997,11.559H5.502C7.104,7.853999999999999,10.773,5.257999999999999,15.067,5.249999999999999C20.831,5.259999999999999,25.495,9.924,25.503999999999998,15.686999999999998C25.494999999999997,21.450999999999997,20.830999999999996,26.115,15.066999999999998,26.125C10.773,26.118,7.102999999999998,23.52,5.500999999999998,19.814H2.289C4.033,25.213,9.088000000000001,29.124000000000002,15.068,29.125999999999998C22.487,29.124,28.505,23.11,28.506,15.687999999999997C28.504,8.265,22.486,2.252,15.067,2.25ZM10.918,19.813L18.067999999999998,15.686999999999998L10.917999999999997,11.557999999999998V13.854999999999999H-0.057V17.516H10.918V19.813Z" stroke-scale="true" class="draw2d_shape_icon_Import" fill-opacity="1" opacity="1" transform="matrix(0.9453,0,0,0.9302,89.0539,58.9071)" stroke-width="1" style="-webkit-tap-highlight-color: rgba(0, 0, 0, 0); opacity: 1;"></path>
    <rect x="54" y="61" width="25" height="25" rx="0" ry="0" fill="#000000" stroke="none" class="draw2d_shape_icon_Import" stroke-width="0" fill-opacity="0" stroke-dasharray="none" opacity="1" style="-webkit-tap-highlight-color: rgba(0, 0, 0, 0); opacity: 1; cursor: move;"></rect>
    <path fill="red" stroke="none" d="M15.067,2.25C9.088000000000001,2.25,4.032,6.16,2.2889999999999997,11.559H5.502C7.104,7.853999999999999,10.773,5.257999999999999,15.067,5.249999999999999C20.831,5.259999999999999,25.495,9.924,25.503999999999998,15.686999999999998C25.494999999999997,21.450999999999997,20.830999999999996,26.115,15.066999999999998,26.125C10.773,26.118,7.102999999999998,23.52,5.500999999999998,19.814H2.289C4.033,25.213,9.088000000000001,29.124000000000002,15.068,29.125999999999998C22.487,29.124,28.505,23.11,28.506,15.687999999999997C28.504,8.265,22.486,2.252,15.067,2.25ZM10.918,19.813L18.067999999999998,15.686999999999998L10.917999999999997,11.557999999999998V13.854999999999999H-0.057V17.516H10.918V19.813Z" stroke-scale="true" class="draw2d_shape_icon_Import" fill-opacity="1" opacity="1" transform="matrix(0.8753,0,0,0.9302,54.0499,58.9071)" stroke-width="1" style="-webkit-tap-highlight-color: rgba(0, 0, 0, 0); opacity: 1;"></path>
    <ellipse cx="152.5" cy="27.176470588235283" rx="7.5" ry="6.176470588235295" fill="#c02b1d" stroke="#1b1b1b" class="draw2d_shape_basic_Circle" x="145" y="20.99999999999999" stroke-opacity="1" stroke-width="1" fill-opacity="1" stroke-dasharray="none" opacity="1" style="-webkit-tap-highlight-color: rgba(0, 0, 0, 0); opacity: 1; cursor: move;"></ellipse>
    <rect x="141" y="56" width="24" height="5" rx="0" ry="0" fill="#ffffff" stroke="#1b1b1b" class="draw2d_shape_basic_Rectangle" stroke-opacity="1" stroke-width="1" fill-opacity="1" stroke-dasharray="none" opacity="1" transform="matrix(1,0,0,1,0,0)" style="-webkit-tap-highlight-color: rgba(0, 0, 0, 0); opacity: 1; cursor: move;"></rect>
    <rect x="141" y="85" width="24" height="5" rx="0" ry="0" fill="#ffffff" stroke="#1b1b1b" class="draw2d_shape_basic_Rectangle" stroke-opacity="1" stroke-width="1" fill-opacity="1" stroke-dasharray="none" opacity="1" transform="matrix(1,0,0,1,0,0)" style="-webkit-tap-highlight-color: rgba(0, 0, 0, 0); opacity: 1; cursor: move;"></rect>
    <rect x="5" y="73" width="23" height="5" rx="0" ry="0" fill="#ffffff" stroke="#1b1b1b" class="draw2d_shape_basic_Rectangle" stroke-opacity="1" stroke-width="1" fill-opacity="1" stroke-dasharray="none" opacity="1" transform="matrix(1,0,0,1,0,0)" style="-webkit-tap-highlight-color: rgba(0, 0, 0, 0); opacity: 1; cursor: move;"></rect>
    <desc style="-webkit-tap-highlight-color: rgba(0, 0, 0, 0);">Created with Raphaël 2.1.4</desc>
    <defs style="-webkit-tap-highlight-color: rgba(0, 0, 0, 0);">
        <linearGradient id="53790-_CACACA-_FDFDFD" x1="0" y1="1" x2="6.123233995736766e-17" y2="0" gradientTransform="matrix(1,0,0,1,0,0)" style="-webkit-tap-highlight-color: rgba(0, 0, 0, 0);">
            <stop offset="0%" stop-color="#cacaca" stop-opacity="1" style="-webkit-tap-highlight-color: rgba(0, 0, 0, 0);"></stop>
            <stop offset="100%" stop-color="#fdfdfd" stop-opacity="1" style="-webkit-tap-highlight-color: rgba(0, 0, 0, 0);"></stop>
        </linearGradient>
        <linearGradient id="53890-_CACACA-_FDFDFD" x1="0" y1="1" x2="6.123233995736766e-17" y2="0" gradientTransform="matrix(1,0,0,1,0,0)" style="-webkit-tap-highlight-color: rgba(0, 0, 0, 0);">
            <stop offset="0%" stop-color="#cacaca" stop-opacity="1" style="-webkit-tap-highlight-color: rgba(0, 0, 0, 0);"></stop>
            <stop offset="100%" stop-color="#fdfdfd" stop-opacity="1" style="-webkit-tap-highlight-color: rgba(0, 0, 0, 0);"></stop>
        </linearGradient>
        <linearGradient id="53990-_CACACA-_FDFDFD" x1="0" y1="1" x2="6.123233995736766e-17" y2="0" gradientTransform="matrix(1,0,0,1,0,0)" style="-webkit-tap-highlight-color: rgba(0, 0, 0, 0);">
            <stop offset="0%" stop-color="#cacaca" stop-opacity="1" style="-webkit-tap-highlight-color: rgba(0, 0, 0, 0);"></stop>
            <stop offset="100%" stop-color="#fdfdfd" stop-opacity="1" style="-webkit-tap-highlight-color: rgba(0, 0, 0, 0);"></stop>
        </linearGradient>
        <linearGradient id="54090-_CACACA-_FDFDFD" x1="0" y1="1" x2="6.123233995736766e-17" y2="0" gradientTransform="matrix(1,0,0,1,0,0)" style="-webkit-tap-highlight-color: rgba(0, 0, 0, 0);">
            <stop offset="0%" stop-color="#cacaca" stop-opacity="1" style="-webkit-tap-highlight-color: rgba(0, 0, 0, 0);"></stop>
            <stop offset="100%" stop-color="#fdfdfd" stop-opacity="1" style="-webkit-tap-highlight-color: rgba(0, 0, 0, 0);"></stop>
        </linearGradient>
    </defs>
</svg>