<svg height="512" viewBox="0 0 512 512" width="512" xmlns="http://www.w3.org/2000/svg">
    <g>
        <ellipse stroke-width="18px" stroke="#000" style="fill:white;" cx="305" cy="200" rx="150" ry="150">
        <!-- <animate  attributeName="opacity" from="1"  to="0" dur="2s" repeatCount="indefinite" /> -->
        </ellipse>
        <ellipse stroke-width="18px" stroke="#000" style="fill:white;" cx="305" cy="200" rx="130" ry="130">
        <animate  attributeName="fill" from="white"  to="red" dur="1s" repeatCount="indefinite" />
        </ellipse>
        
        <path stroke-width="6px" stroke="#000" fill="#000" d="m304 240a24.039 24.039 0 0 0 22.624-16h25.376a8 8 0 0 0 0-16h-25.376a24.119 24.119 0 0 0 -14.624-14.624v-57.376a8 8 0 0 0 -16 0v57.376a24 24 0 0 0 8 46.624zm0-32a8 8 0 1 1 -8 8 8.009 8.009 0 0 1 8-8z">
            <!-- <animate  attributeName="opacity" from="1"  to="0" dur="2s" repeatCount="indefinite" /> -->
        
        </path>
        <path stroke-width="9px" stroke="#000" fill="#000" d="m490.94 52.69-22.63-22.63a48.043 48.043 0 0 0 -67.88 0l-5.66 5.66a8 8 0 0 0 0 11.31l79.2 79.2a8 8 0 0 0 11.31 0l5.66-5.66a48.043 48.043 0 0 0 0-67.88zm-11.31 56.56-67.88-67.88a32.034 32.034 0 0 1 45.25 0l22.63 22.63a32.043 32.043 0 0 1 0 45.25z">
            <!-- <animate  attributeName="opacity" from="1"  to="0" dur="2s" repeatCount="indefinite" /> -->
        
        </path>
        <path stroke-width="9px" stroke="#000" fill="#000" d="m123.146 126.226a8 8 0 0 0 11.315 0l79.2-79.2a8 8 0 0 0 0-11.314l-5.661-5.652a48 48 0 0 0 -67.883 0l-22.627 22.626a48.056 48.056 0 0 0 0 67.883zm5.659-62.226 22.627-22.627a32 32 0 0 1 45.254 0l-67.882 67.882a32.034 32.034 0 0 1 .001-45.255z">
            <!-- <animate  attributeName="opacity" from="1"  to="0" dur="2s" repeatCount="indefinite" /> -->
        
        </path>
        
    </g>
</svg>