<svg  height="200" version="1.1" width="140" xmlns="http://www.w3.org/2000/svg" xmlns:xlink="http://www.w3.org/1999/xlink" style="overflow: hidden;">
  <rect x="19" y="22" width="99" height="77" rx="0" ry="0" fill="#000000" stroke="#000000" class="draw2d_shape_composite_Group" stroke-opacity="0" stroke-width="1" fill-opacity="0" stroke-dasharray="none" opacity="1" style="-webkit-tap-highlight-color: rgba(0, 0, 0, 0); opacity: 1; cursor: default;"></rect>
  <ellipse cx="68.5" cy="75" rx="49.5" ry="24" fill="#aad491" stroke="#1b1b1b" class="draw2d_shape_basic_Oval" x="19" y="51" stroke-opacity="1" stroke-width="1" fill-opacity="1" stroke-dasharray="none" opacity="1" style="-webkit-tap-highlight-color: rgba(0, 0, 0, 0); opacity: 1; cursor: move;"></ellipse>
  <rect x="57" y="83" width="28" height="7" rx="0" ry="0" fill="#5d9bda" stroke="#1b1b1b" class="draw2d_shape_basic_Rectangle" stroke-opacity="1" stroke-width="1" fill-opacity="1" stroke-dasharray="none" opacity="1" transform="matrix(1,0,0,1,0,0)" style="-webkit-tap-highlight-color: rgba(0, 0, 0, 0); opacity: 1; cursor: move;"></rect>
  <rect x="36" y="73" width="67" height="13" rx="0" ry="0" fill="#5d9bda" stroke="#1b1b1b" class="draw2d_shape_basic_Rectangle" stroke-opacity="1" stroke-width="1" fill-opacity="1" stroke-dasharray="none" opacity="1" transform="matrix(1,0,0,1,0,0)" style="-webkit-tap-highlight-color: rgba(0, 0, 0, 0); opacity: 1; cursor: move;"></rect>
  <path fill="#5d9bda" stroke="#1b1b1b" d="M70,22L110,42L70,62L30,42Z" class="draw2d_shape_basic_Diamond" x="30" y="22" stroke-opacity="1" stroke-width="1" fill-opacity="1" stroke-dasharray="none" opacity="1" style="-webkit-tap-highlight-color: rgba(0, 0, 0, 0); opacity: 1; cursor: move;"></path>
  <rect x="28" y="42" width="84" height="7" rx="0" ry="0" fill="#5d9bda" stroke="#1b1b1b" class="draw2d_shape_basic_Rectangle" stroke-opacity="1" stroke-width="1" fill-opacity="1" stroke-dasharray="none" opacity="1" transform="matrix(1,0,0,1,0,0)" style="-webkit-tap-highlight-color: rgba(0, 0, 0, 0); opacity: 1; cursor: move;"></rect>
  <rect x="36" y="49" width="67" height="34" rx="0" ry="0" fill="#5d9bda" stroke="#1b1b1b" class="draw2d_shape_basic_Rectangle" stroke-opacity="1" stroke-width="1" fill-opacity="1" stroke-dasharray="none" opacity="1" transform="matrix(1,0,0,1,0,0)" style="-webkit-tap-highlight-color: rgba(0, 0, 0, 0); opacity: 1; cursor: move;"></rect>
  <rect x="85" y="58" width="8" height="23" rx="0" ry="0" fill="#5d9bda" stroke="#1b1b1b" class="draw2d_shape_basic_Rectangle" stroke-opacity="1" stroke-width="1" fill-opacity="1" stroke-dasharray="none" opacity="1" transform="matrix(1,0,0,1,0,0)" style="-webkit-tap-highlight-color: rgba(0, 0, 0, 0); opacity: 1; cursor: move;"></rect>
  <rect x="44" y="59" width="8" height="22" rx="0" ry="0" fill="#5d9bda" stroke="#1b1b1b" class="draw2d_shape_basic_Rectangle" stroke-opacity="1" stroke-width="1" fill-opacity="1" stroke-dasharray="none" opacity="1" transform="matrix(1,0,0,1,0,0)" style="-webkit-tap-highlight-color: rgba(0, 0, 0, 0); opacity: 1; cursor: move;"></rect>
  <ellipse cx="47.5" cy="55.5" rx="2.5" ry="2.5" fill="#aad491" stroke="#1b1b1b" class="draw2d_shape_basic_Oval" x="45" y="53" stroke-opacity="1" stroke-width="1" fill-opacity="1" stroke-dasharray="none" opacity="1" style="-webkit-tap-highlight-color: rgba(0, 0, 0, 0); opacity: 1; cursor: move;"></ellipse>
  <ellipse cx="88.5" cy="54.5" rx="2.5" ry="2.5" fill="#aad491" stroke="#1b1b1b" class="draw2d_shape_basic_Oval" x="86" y="52" stroke-opacity="1" stroke-width="1" fill-opacity="1" stroke-dasharray="none" opacity="1" style="-webkit-tap-highlight-color: rgba(0, 0, 0, 0); opacity: 1; cursor: move;"></ellipse>
  <ellipse cx="70.5" cy="35.5" rx="4.5" ry="4.5" fill="#aad491" stroke="#1b1b1b" class="draw2d_shape_basic_Oval" x="66" y="31" stroke-opacity="1" stroke-width="1" fill-opacity="1" stroke-dasharray="none" opacity="1" style="-webkit-tap-highlight-color: rgba(0, 0, 0, 0); opacity: 1; cursor: move;"></ellipse>
  <image x="71" y="60" width="11" height="22" preserveAspectRatio="none" xlink:href="/1.svg" class="draw2d_shape_basic_Image" opacity="1" style="-webkit-tap-highlight-color: rgba(0, 0, 0, 0); display: inline-block; width: 11px; height: 22px; opacity: 1; cursor: move;"></image>
  <image x="57" y="60" width="13" height="22" preserveAspectRatio="none" xlink:href="/1.svg" class="draw2d_shape_basic_Image" opacity="1" style="-webkit-tap-highlight-color: rgba(0, 0, 0, 0); display: inline-block; width: 13px; height: 22px; opacity: 1; cursor: move;"></image>
  <desc style="-webkit-tap-highlight-color: rgba(0, 0, 0, 0);">Created with Raphaël 2.1.4</desc>
  <defs style="-webkit-tap-highlight-color: rgba(0, 0, 0, 0);"></defs>
 
 
</svg>