<?xml version="1.0" encoding="UTF-8"?>
<svg xmlns="http://www.w3.org/2000/svg" xmlns:xlink="http://www.w3.org/1999/xlink" height="70" version="1.1" width="210" style="overflow: hidden; position: absolute;">
	<rect x="7" y="4" width="200" height="60" rx="0" ry="0" fill="#ffffff" stroke="#1b1b1b" class="activity1" stroke-opacity="1" stroke-width="2" fill-opacity="1" stroke-dasharray="none" opacity="1" transform="matrix(1,0,0,1,0,0)" style="-webkit-tap-highlight-color: rgba(0, 0, 0, 0); opacity: 1; cursor: default;"></rect>
	<rect x="57" y="15" width="60.671875" height="25" rx="0" ry="0" fill="#000000" stroke="none" style="-webkit-tap-highlight-color: rgba(0, 0, 0, 0); opacity: 1;" class="text1" stroke-width="0" fill-opacity="0" stroke-dasharray="none" opacity="1" transform="matrix(1,0,0,1,0,0)"></rect>
	<text x="4" y="12.5" text-anchor="start" font-family="&quot;Arial&quot;" font-size="16px" stroke="#000000" fill="#000000" style="-webkit-tap-highlight-color: rgba(0, 0, 0, 0); text-anchor: start; font-family: Arial; font-size: 16px; font-weight: normal; opacity: 1;" stroke-scale="true" class="text1" font-weight="normal" fill-opacity="1" stroke-opacity="0" stroke-width="0" opacity="1" transform="matrix(1,0,0,1,57,15)"><tspan dy="5.5" style="-webkit-tap-highlight-color: rgba(0, 0, 0, 0);">Activity</tspan></text>
	<rect x="32" y="17.5" width="20" height="20" rx="0" ry="0" fill="#000000" stroke="none" class="draw2d_shape_icon_Chrome" style="-webkit-tap-highlight-color: rgba(0, 0, 0, 0); opacity: 1;" stroke-width="0" fill-opacity="0" stroke-dasharray="none" opacity="1"></rect>
	<path fill="#000000" stroke="none" d="M15.318,7.677C15.389,7.648,15.466,7.630999999999999,15.546999999999999,7.630999999999999H27.496C24.962999999999997,3.7159999999999993,20.558,1.1249999999999991,15.546999999999999,1.1249999999999991C10.529999999999998,1.1249999999999991,6.118999999999998,3.722999999999999,3.587999999999999,7.646999999999999L7.879,15.078C8.018,11.041,11.274,7.796,15.318,7.677ZM28.196,8.84H19.617C21.782,10.197,23.222,12.603,23.222,15.346C23.222,16.667,22.888,17.91,22.301000000000002,18.995C22.289,19.066000000000003,22.266000000000002,19.137,22.228,19.204L16.255000000000003,29.551000000000002C23.781000000000002,29.183000000000003,29.769000000000002,22.964000000000002,29.769000000000002,15.346000000000002C29.77,13.002,29.201,10.791,28.196,8.84ZM15.547,23.022C12.786000000000001,23.022,10.366,21.564,9.014,19.375999999999998C8.956,19.33,8.905,19.272999999999996,8.865,19.205L2.89,8.855C1.8900000000000001,10.801,1.3250000000000002,13.008,1.3250000000000002,15.347000000000001C1.3250000000000002,22.971,7.324,29.193,14.859000000000002,29.552L19.146,22.127C18.073,22.698,16.848,23.022,15.547,23.022ZM9.08,15.347C9.08,17.134999999999998,9.803,18.747999999999998,10.974,19.92C12.146,21.092000000000002,13.759,21.815,15.547,21.815C17.335,21.815,18.948,21.092000000000002,20.12,19.92S22.015,17.135,22.015,15.347000000000001C22.015,13.559000000000001,21.292,11.947000000000001,20.12,10.774000000000001C18.948,9.603000000000002,17.335,8.88,15.547,8.88C13.759,8.88,12.146,9.603000000000002,10.974,10.774000000000001C9.803,11.946,9.081,13.559,9.08,15.347Z" stroke-scale="true" class="draw2d_shape_icon_Chrome" style="-webkit-tap-highlight-color: rgba(0, 0, 0, 0); opacity: 1;" fill-opacity="1" opacity="1" transform="matrix(0.7031,0,0,0.7036,31.0683,16.7085)" stroke-width="1"></path>
</svg>