<?xml version="1.0" encoding="UTF-8"?>
<svg xmlns="http://www.w3.org/2000/svg" xmlns:xlink="http://www.w3.org/1999/xlink" height="150" version="1.1" width="165" style="overflow: hidden; position: absolute;">
<path fill="#00aa9e" stroke="#00aa9e" d="M82.99999999999996,5L160.99999999999991,72.99999999999999L82.99999999999996,140.99999999999997L5,72.99999999999999Z" class="activity6" x="5" y="5" stroke-opacity="1" stroke-width="4" fill-opacity="1" stroke-dasharray="none" opacity="1" style="-webkit-tap-highlight-color: rgba(0, 0, 0, 0); opacity: 1; cursor: default;"></path>
<rect x="46.5" y="58.5" width="73.34375" height="30" rx="0" ry="0" fill="#00aa9e" stroke="none" style="-webkit-tap-highlight-color: rgba(0, 0, 0, 0); opacity: 1;" class="text4" stroke-width="0" fill-opacity="1" stroke-dasharray="none" opacity="1" transform="matrix(1,0,0,1,0,0)"></rect>
<text x="4" y="15" text-anchor="start" font-family="&quot;Arial&quot;" font-size="20px" stroke="#000000" fill="#ffffff" style="-webkit-tap-highlight-color: rgba(0, 0, 0, 0); text-anchor: start; font-family: Arial; font-size: 20px; font-weight: normal; opacity: 1;" stroke-scale="true" class="text4" font-weight="normal" fill-opacity="1" stroke-opacity="0" stroke-width="0" opacity="1" transform="matrix(1,0,0,1,46.5,58.5)"><tspan dy="7" style="-webkit-tap-highlight-color: rgba(0, 0, 0, 0);">Activity</tspan></text>
<rect x="21.5" y="63.5" width="20" height="20" rx="0" ry="0" fill="#000000" stroke="none" class="draw2d_shape_icon_Windows" style="-webkit-tap-highlight-color: rgba(0, 0, 0, 0); opacity: 1;" stroke-width="0" fill-opacity="0" stroke-dasharray="none" opacity="1"></rect>
<path fill="#ffffff" stroke="none" d="M20.023,17.484C18.291,17.279000000000003,17.001,16.576,15.811,15.783000000000001L15.811,15.783000000000001L15.252,16.062L12.674000000000001,24.986L12.674000000000001,24.986C13.891000000000002,25.791,15.579,26.693,17.356,26.900000000000002C20.042,27.212000000000003,22.916,26.156000000000002,23.747,25.705000000000002L26.364,16.644000000000002L25.805,16.365000000000002C25.805,16.365,23.193,17.857,20.023,17.484ZM14.424,14.825C13.157,13.955,11.846,13.173,10.049,13.008999999999999C9.731,12.979999999999999,9.421999999999999,12.966999999999999,9.123999999999999,12.966999999999999C6.112999999999999,12.966999999999999,4.175999999999998,14.313999999999998,4.175999999999998,14.313999999999998L1.6109999999999984,23.191L1.6109999999999984,23.191L2.1369999999999987,23.471999999999998C3.1179999999999986,22.996,4.916999999999998,22.326999999999998,7.2269999999999985,22.488C8.892,22.601,10.146999999999998,23.269,11.343999999999998,24.019L11.850999999999997,23.758999999999997L11.850999999999997,23.758999999999997L14.424,14.825ZM10.201,12.094C11.865,12.208,13.122,12.873999999999999,14.318000000000001,13.626999999999999L14.827000000000002,13.366999999999999L14.827000000000002,13.366999999999999L17.4,4.431C16.13,3.561,14.820999999999998,2.778,13.023,2.615C12.705,2.5860000000000003,12.397,2.5730000000000004,12.099,2.5730000000000004C9.088,2.573,7.15,3.92,7.15,3.92L4.5840000000000005,12.798L5.11,13.08C6.092,12.604,7.891,11.936,10.201,12.094ZM28.779,5.971L28.779,5.971C28.779,5.972,26.17,7.463,23,7.09C21.266,6.886,19.977,6.183,18.787,5.388999999999999L18.227,5.67L15.651,14.593L15.651,14.593C16.866,15.396,18.557,16.302,20.331,16.508C23.018,16.82,25.889,15.763,26.723,15.311L29.338,6.252000000000001L28.779,5.971Z" stroke-scale="true" class="draw2d_shape_icon_Windows" style="-webkit-tap-highlight-color: rgba(0, 0, 0, 0); opacity: 1;" fill-opacity="1" opacity="1" transform="matrix(0.7213,0,0,0.8202,20.338,61.3896)" stroke-width="1"></path>
</svg>