<?xml version="1.0" encoding="UTF-8"?>
<svg xmlns="http://www.w3.org/2000/svg" xmlns:xlink="http://www.w3.org/1999/xlink" height="60" version="1.1" width="200" style="overflow: hidden; position: absolute;">
	<path fill="#28b061" stroke="none" d="M1.5,46.5L9.5,16.5H61.5L53.5,46.5Z" stroke-scale="true" class="activity" fill-opacity="1" transform="matrix(3.3333,0,0,2,-5,-33)" stroke-width="1" style="-webkit-tap-highlight-color: rgba(0, 0, 0, 0);"></path>
	<rect style="-webkit-tap-highlight-color: rgba(0, 0, 0, 0); opacity: 1;" x="-3" y="-3" width="206" height="66" rx="0" ry="0" fill="#000000" stroke="#2c70ff" class="draw2d_shape_basic_Rectangle" stroke-opacity="1" stroke-width="1" fill-opacity="0" stroke-dasharray="none" opacity="1" transform="matrix(1,0,0,1,0,0)"></rect>
	<rect x="50" y="16" width="60.671875" height="25" rx="0" ry="0" fill="#000000" stroke="none" style="-webkit-tap-highlight-color: rgba(0, 0, 0, 0); opacity: 1;" class="text" stroke-width="0" fill-opacity="0" stroke-dasharray="none" opacity="1" transform="matrix(1,0,0,1,0,0)"></rect>
	<text x="4" y="12.5" text-anchor="start" font-family="&quot;Arial&quot;" font-size="16px" stroke="#000000" fill="#ffffff" style="-webkit-tap-highlight-color: rgba(0, 0, 0, 0); text-anchor: start; font-family: Arial; font-size: 16px; font-weight: normal; opacity: 1;" stroke-scale="true" class="text" font-weight="normal" fill-opacity="1" stroke-opacity="0" stroke-width="0" opacity="1" transform="matrix(1,0,0,1,50,16)"><tspan dy="5.5" style="-webkit-tap-highlight-color: rgba(0, 0, 0, 0);">Activity</tspan></text>
	<rect x="25" y="18.5" width="20" height="20" rx="0" ry="0" fill="#000000" stroke="none" class="draw2d_shape_icon_Clock" style="-webkit-tap-highlight-color: rgba(0, 0, 0, 0); opacity: 1;" stroke-width="0" fill-opacity="0" stroke-dasharray="none" opacity="1"></rect>
	<path fill="#ffffff" stroke="none" d="M15.5,2.374C8.251,2.375,2.376,8.251,2.374,15.5C2.376,22.748,8.251,28.623,15.5,28.627C22.749,28.622999999999998,28.624000000000002,22.747999999999998,28.625,15.499999999999998C28.624,8.251,22.749,2.375,15.5,2.374ZM15.5,25.623C9.909,25.615,5.385,21.09,5.375,15.5C5.385,9.909,9.909,5.384,15.5,5.374C21.09,5.3839999999999995,25.615000000000002,9.908999999999999,25.624000000000002,15.498999999999999C25.615,21.09,21.091,25.615,15.5,25.623ZM8.625,15.5C8.624,14.948,8.177,14.501,7.6240000000000006,14.5C7.071000000000001,14.5,6.6240000000000006,14.948,6.6240000000000006,15.5C6.6240000000000006,16.053,7.073,16.5,7.6240000000000006,16.5C8.176,16.5,8.624,16.053,8.625,15.5ZM8.179,18.572C7.7010000000000005,18.849,7.537,19.461,7.814,19.939C8.089,20.418,8.703,20.58,9.179,20.304C9.658,20.029,9.822000000000001,19.416999999999998,9.546,18.936999999999998C9.27,18.461,8.658,18.297,8.179,18.572ZM9.18,10.696C8.701,10.42,8.09,10.584,7.814,11.062S7.703,12.152,8.179,12.427999999999999C8.658,12.703999999999999,9.269,12.540999999999999,9.546,12.062C9.821,11.584,9.657,10.973,9.18,10.696ZM22.822,12.428C23.3,12.153,23.465,11.540000000000001,23.188,11.062000000000001C22.913,10.584000000000001,22.298,10.420000000000002,21.822,10.696000000000002C21.343,10.974000000000002,21.18,11.586000000000002,21.456,12.063000000000002C21.732,12.54,22.344,12.705,22.822,12.428ZM12.062,21.455C11.584,21.18,10.972999999999999,21.343999999999998,10.696,21.822C10.421,22.301,10.584999999999999,22.912,11.062,23.186999999999998C11.54,23.464,12.152999999999999,23.298,12.427,22.822C12.704,22.344,12.54,21.732,12.062,21.455ZM12.062,9.545C12.540999999999999,9.269,12.703999999999999,8.657,12.427999999999999,8.179C12.152,7.7010000000000005,11.54,7.537,11.062,7.813000000000001S10.42,8.701,10.696,9.179C10.973,9.658,11.584,9.822,12.062,9.545ZM22.823,18.572C22.343,18.297,21.731,18.461,21.456,18.936999999999998C21.181,19.415999999999997,21.344,20.028999999999996,21.823,20.304C22.3,20.578999999999997,22.912,20.416999999999998,23.188,19.939C23.464,19.461,23.3,18.848,22.823,18.572ZM19.938,7.813C19.461,7.537,18.846999999999998,7.702,18.573,8.179C18.298000000000002,8.659,18.462,9.27,18.939,9.546S20.028,9.658,20.305,9.18C20.581,8.702,20.418,8.089,19.938,7.813ZM23.378,14.5C22.824,14.502,22.377,14.95,22.377,15.5C22.378,16.052,22.825,16.5,23.378,16.5C23.929,16.5,24.378,16.053,24.378,15.5C24.378,14.949,23.929,14.5,23.378,14.5ZM15.501,6.624C14.949,6.624,14.501,7.072,14.501,7.624L14.035,14.966999999999999L11.031,16.927C10.553,17.204,10.389000000000001,17.816,10.666,18.291999999999998C10.941,18.770999999999997,11.555,18.935,12.031,18.659L15.336,16.983C15.39,16.99,15.444,17,15.501,17C16.329,17,17.000999999999998,16.329,17.000999999999998,15.5L16.500999999999998,7.624C16.501,7.072,16.053,6.624,15.501,6.624ZM15.501,22.377C14.949,22.377,14.501,22.823999999999998,14.501,23.377S14.949,24.377,15.501,24.377S16.500999999999998,23.93,16.500999999999998,23.377S16.053,22.377,15.501,22.377ZM18.939,21.455C18.46,21.732,18.296,22.343999999999998,18.573,22.822C18.848,23.299,19.461000000000002,23.465,19.939,23.186999999999998C20.417,22.912,20.581,22.298,20.305,21.822C20.028,21.344,19.417,21.18,18.939,21.455Z" stroke-scale="true" class="draw2d_shape_icon_Clock" style="-webkit-tap-highlight-color: rgba(0, 0, 0, 0); opacity: 1;" fill-opacity="1" opacity="1" transform="matrix(0.7619,0,0,0.7618,23.1913,16.6914)" stroke-width="1"></path>
</svg>