<?xml version="1.0" encoding="UTF-8"?>
<svg xmlns="http://www.w3.org/2000/svg" xmlns:xlink="http://www.w3.org/1999/xlink" height="70" version="1.1" width="210" style="overflow: hidden; position: absolute;">
	<rect x="3" y="2" width="200" height="60" rx="12" ry="12" fill="#ffffff" stroke="#1b1b1b" class="activity2" stroke-opacity="1" stroke-width="2" fill-opacity="1" stroke-dasharray="none" opacity="1" transform="matrix(1,0,0,1,0,0)" style="-webkit-tap-highlight-color: rgba(0, 0, 0, 0); opacity: 1; cursor: default;"></rect>
	<rect x="53" y="13" width="60.671875" height="25" rx="0" ry="0" fill="#000000" stroke="none" style="-webkit-tap-highlight-color: rgba(0, 0, 0, 0); opacity: 1;" class="text2" stroke-width="0" fill-opacity="0" stroke-dasharray="none" opacity="1" transform="matrix(1,0,0,1,0,0)"></rect>
	<text x="4" y="12.5" text-anchor="start" font-family="&quot;Arial&quot;" font-size="16px" stroke="#000000" fill="#000000" style="-webkit-tap-highlight-color: rgba(0, 0, 0, 0); text-anchor: start; font-family: Arial; font-size: 16px; font-weight: normal; opacity: 1;" stroke-scale="true" class="text2" font-weight="normal" fill-opacity="1" stroke-opacity="0" stroke-width="0" opacity="1" transform="matrix(1,0,0,1,53,13)"><tspan dy="5.5" style="-webkit-tap-highlight-color: rgba(0, 0, 0, 0);">Activity</tspan></text>
	<rect x="28" y="15.5" width="20" height="20" rx="0" ry="0" fill="#000000" stroke="none" class="draw2d_shape_icon_Cloud2" style="-webkit-tap-highlight-color: rgba(0, 0, 0, 0); opacity: 1;" stroke-width="0" fill-opacity="0" stroke-dasharray="none" opacity="1"></rect>
	<path fill="#000000" stroke="none" d="M7.562,24.812C4.2490000000000006,24.812,1.5620000000000003,22.125,1.5620000000000003,18.812L1.5620000000000003,18.812C1.5640000000000003,16.153000000000002,3.2960000000000003,13.913,5.689,13.128L5.689,13.128C5.772,10.868,7.626,9.064,9.905000000000001,9.062000000000001L9.905000000000001,9.062000000000001C10.635000000000002,9.062000000000001,11.32,9.252,11.915000000000001,9.579L11.915000000000001,9.579C13.181000000000001,7.474,15.485000000000001,6.063000000000001,18.123,6.062000000000001L18.123,6.062000000000001C22.07,6.064000000000001,25.28,9.217,25.371000000000002,13.141000000000002L25.371000000000002,13.141000000000002C27.733000000000004,13.945000000000002,29.433000000000003,16.175,29.435000000000002,18.812L29.435000000000002,18.812C29.435000000000002,22.125,26.748,24.812,23.435000000000002,24.812L23.435000000000002,24.812H7.562L7.562,24.812ZM24.163,14.887C23.652,14.792,23.299,14.325000000000001,23.348,13.808L23.348,13.808C23.365,13.637,23.375,13.472,23.375,13.311L23.375,13.311C23.368,10.411999999999999,21.023,8.065999999999999,18.124,8.062000000000001L18.124,8.062000000000001C15.874999999999998,8.06,13.962,9.48,13.213,11.472000000000001L13.213,11.472000000000001C13.091,11.795000000000002,12.806999999999999,12.036000000000001,12.465,12.102000000000002L12.465,12.102000000000002C12.125,12.168000000000003,11.771,12.050000000000002,11.538,11.793000000000003L11.538,11.793000000000003C11.122,11.340000000000003,10.552,11.062000000000003,9.905000000000001,11.062000000000003L9.905000000000001,11.062000000000003C8.680000000000001,11.064000000000004,7.689000000000001,12.055000000000003,7.6850000000000005,13.280000000000003L7.6850000000000005,13.280000000000003C7.6850000000000005,13.416000000000002,7.702000000000001,13.556000000000003,7.73,13.704000000000002L7.73,13.704000000000002C7.779000000000001,13.970000000000002,7.722,14.244000000000003,7.567,14.466000000000003L7.567,14.466000000000003C7.412,14.689000000000004,7.175,14.837000000000003,6.91,14.880000000000003L6.91,14.880000000000003C5.01,15.193000000000003,3.5580000000000003,16.829000000000004,3.56,18.811000000000003L3.56,18.811000000000003C3.564,21.020000000000003,5.352,22.806000000000004,7.561,22.812000000000005L7.561,22.812000000000005H23.435000000000002C25.644000000000002,22.806000000000004,27.429000000000002,21.020000000000003,27.434,18.811000000000003L27.434,18.811000000000003C27.438,16.854,26.024,15.231,24.163,14.887L24.163,14.887" stroke-scale="true" class="draw2d_shape_icon_Cloud2" style="-webkit-tap-highlight-color: rgba(0, 0, 0, 0); opacity: 1;" fill-opacity="1" opacity="1" transform="matrix(0.7175,0,0,1.0667,26.8792,9.0339)" stroke-width="1"></path>
</svg>