<svg   xmlns="http://www.w3.org/2000/svg" xmlns:xlink="http://www.w3.org/1999/xlink" height="170" version="1.1" width="170" style="overflow: hidden;">
  <rect style="-webkit-tap-highlight-color: rgba(0, 0, 0, 0); opacity: 1; cursor: default;" x="17" y="28" width="145" height="130" rx="0" ry="0" fill="#000000" stroke="#000000" class="draw2d_shape_composite_Group" stroke-opacity="0" stroke-width="1" fill-opacity="0" stroke-dasharray="none" opacity="1" />
  <rect x="74" y="28" width="29" height="8" rx="1" ry="1" fill="red" stroke="#1b1b1b" class="draw2d_shape_basic_Rectangle" stroke-opacity="1" stroke-width="1" fill-opacity="1" stroke-dasharray="none" opacity="1" transform="matrix(1,0,0,1,0,0)" style="-webkit-tap-highlight-color: rgba(0, 0, 0, 0); opacity: 1; cursor: move;" />
  <!--<rect x="17" y="106" width="145" height="52" rx="0" ry="0" fill="#1A1A1A" stroke="#fff" class="draw2d_shape_basic_Rectangle" stroke-opacity="1" stroke-width="0.05" fill-opacity="1" stroke-dasharray="none" opacity="1" transform="matrix(1,0,0,1,0,0)" style="-webkit-tap-highlight-color: rgba(0, 0, 0, 0); opacity: 1; cursor: move;" />-->
  <rect x="58" y="98" width="64" height="5" rx="0" ry="0" fill="#5d9bda" stroke="#1b1b1b" class="draw2d_shape_basic_Rectangle" stroke-opacity="1" stroke-width="1" fill-opacity="1" stroke-dasharray="none" opacity="1" transform="matrix(1,0,0,1,0,0)" style="-webkit-tap-highlight-color: rgba(0, 0, 0, 0); opacity: 1; cursor: move;" />
  <rect x="64" y="36" width="51" height="67" rx="1" ry="1" fill="#fff" stroke="#1b1b1b" class="draw2d_shape_basic_Rectangle" stroke-opacity="1" stroke-width="1" fill-opacity="1" stroke-dasharray="none" opacity="1" transform="matrix(1,0,0,1,0,0)" style="-webkit-tap-highlight-color: rgba(0, 0, 0, 0); opacity: 1; cursor: move;" />
  <rect x="64" y="36" width="38" height="67" rx="0" ry="0" fill="#5d9bda" stroke="#1b1b1b" class="draw2d_shape_basic_Rectangle" stroke-opacity="1" stroke-width="1" fill-opacity="1" stroke-dasharray="none" opacity="1" transform="matrix(1,0,0,1,0,0)" style="-webkit-tap-highlight-color: rgba(0, 0, 0, 0); opacity: 1; cursor: move;" />
  <rect x="91" y="67" width="9" height="20" rx="1" ry="1" fill="#5d9bda" stroke="#1b1b1b" class="draw2d_shape_basic_Rectangle" stroke-opacity="1" stroke-width="1" fill-opacity="1" stroke-dasharray="none" opacity="1" transform="matrix(1,0,0,1,0,0)" style="-webkit-tap-highlight-color: rgba(0, 0, 0, 0); opacity: 1; cursor: move;" />
  <rect x="64" y="36" width="5" height="67" rx="0" ry="0" fill="#5d9bda" stroke="#1b1b1b" class="draw2d_shape_basic_Rectangle" stroke-opacity="1" stroke-width="1" fill-opacity="1" stroke-dasharray="none" opacity="1" transform="matrix(1,0,0,1,0,0)" style="-webkit-tap-highlight-color: rgba(0, 0, 0, 0); opacity: 1; cursor: move;" />
  <ellipse cx="95" cy="77.5" rx="4" ry="4.5" fill="#aad491" stroke="#1b1b1b" class="draw2d_shape_basic_Oval" x="91" y="73" stroke-opacity="1" stroke-width="1" fill-opacity="1" stroke-dasharray="none" opacity="1" style="-webkit-tap-highlight-color: rgba(0, 0, 0, 0); opacity: 1; cursor: move;" />
  <path fill="#fff" stroke="#fff" d="M64,37L103,37L103,43L102,49Z" class="draw2d_shape_basic_Polygon" x="64" y="37" stroke-opacity="1" stroke-width="1" fill-opacity="1" stroke-dasharray="none" opacity="1" style="-webkit-tap-highlight-color: rgba(0, 0, 0, 0); opacity: 1; cursor: move;" />
  <path fill="#fff" stroke="#fff" d="M64,102L102,96L102,102Z" class="draw2d_shape_basic_Polygon" x="64" y="96" stroke-opacity="1" stroke-width="1" fill-opacity="1" stroke-dasharray="none" opacity="1" style="-webkit-tap-highlight-color: rgba(0, 0, 0, 0); opacity: 1; cursor: move;" />
  <path fill="#5d9bda" stroke="#303030" d="M64,102L102,96L101,96Z" class="draw2d_shape_basic_Polygon" x="64" y="96" stroke-opacity="1" stroke-width="1" fill-opacity="1" stroke-dasharray="none" opacity="1" style="-webkit-tap-highlight-color: rgba(0, 0, 0, 0); opacity: 1; cursor: move;" />
  <path fill="#5d9bda" stroke="#303030" d="M64,37L102,49L98,48Z" class="draw2d_shape_basic_Polygon" x="64" y="37" stroke-opacity="1" stroke-width="1" fill-opacity="1" stroke-dasharray="none" opacity="1" style="-webkit-tap-highlight-color: rgba(0, 0, 0, 0); opacity: 1; cursor: move;" />
  <desc style="-webkit-tap-highlight-color: rgba(0, 0, 0, 0);">Created with Raphaël 2.1.4</desc>
  <defs style="-webkit-tap-highlight-color: rgba(0, 0, 0, 0);" />
  <!--<text x="20" y="125" fill="#00adef">Tổng: 100,</text>
  <text x="100" y="125" fill="#00FF00">Vào: 50,</text>
  <text x="20" y="150" fill="red">Nghỉ: 20,</text>
  <text x="90" y="150" fill="grey">Muộn: 30</text>-->
  <!--<text x="-15" y="-120" text-anchor="start" font-family="&quot;Arial&quot;" font-size="12px" stroke="#000000" fill="#00adef" style="-webkit-tap-highlight-color: rgba(0, 0, 0, 0); text-anchor: start; font-family: Arial; font-size: 12px; font-weight: normal; opacity: 1;" stroke-scale="true" class="draw2d_shape_basic_Label" font-weight="normal" fill-opacity="1" stroke-opacity="0" stroke-width="0" opacity="1" transform="matrix(1,0,0,1,53.7656,142)">
    <tspan style="-webkit-tap-highlight-color: rgba(0, 0, 0, 0);" dy="0" dx="0">Phòng kinh doanh</tspan>
  </text>-->

</svg>