<svg height="512" viewBox="0 0 512 512" width="512" xmlns="http://www.w3.org/2000/svg">
    <g>
        <path stroke-width="12px" stroke="#9400D3" fill="#9400D3" d="m72 464h-32a8 8 0 0 0 0 16h32a8 8 0 0 0 0-16z">
            <animate  attributeName="opacity" from="1"  to="0" dur="2s" repeatCount="indefinite" />
        </path>
        <path stroke-width="12px" stroke="#9400D3" fill="#9400D3" d="m104 464h-8a8 8 0 0 0 0 16h8a8 8 0 0 0 0-16z">
            <animate  attributeName="opacity" from="1"  to="0" dur="2s" repeatCount="indefinite" />

        </path>
        <path stroke-width="12px" stroke="#9400D3" fill="#9400D3" d="m104 296a56 56 0 1 0 56 56 56.063 56.063 0 0 0 -56-56zm0 96a40 40 0 1 1 40-40 40.045 40.045 0 0 1 -40 40z">
            <animate  attributeName="opacity" from="1"  to="0" dur="2s" repeatCount="indefinite" />
        </path>
        <path stroke-width="12px" stroke="#9400D3" fill="#9400D3" d="m120 344h-8v-16a8 8 0 0 0 -16 0v24a8 8 0 0 0 8 8h16a8 8 0 0 0 0-16z">
            <animate  attributeName="opacity" from="1"  to="0" dur="2s" repeatCount="indefinite" />
        </path>
        
        <path stroke-width="12px" stroke="#9400D3" fill="#9400D3" d="m304 384c92.64 0 168-75.36 168-168 0-89.95-71.06-163.61-160-167.81v-24.19h16a8 8 0 0 0 0-16h-48a8 8 0 0 0 0 16h16v24.19a167.768 167.768 0 0 0 -159.24 151.81h-104.76a24.032 24.032 0 0 0 -24 24v256a24.032 24.032 0 0 0 24 24h144a24.032 24.032 0 0 0 24-24v-24h104a8 8 0 0 0 8-8v-48a8 8 0 0 0 -16 0v40h-96v-92.06a166.879 166.879 0 0 0 104 36.06zm0-320c83.81 0 152 68.19 152 152s-68.19 152-152 152a151.075 151.075 0 0 1 -104-41.17v-23.21a136.143 136.143 0 0 0 104 48.38c74.99 0 136-61.01 136-136s-61.01-136-136-136a136.18 136.18 0 0 0 -135.06 120h-16.1a151.8 151.8 0 0 1 151.16-136zm-179.1 152-2.67 8h-36.46l-2.67-8zm59.1 264a8.011 8.011 0 0 1 -8 8h-144a8.011 8.011 0 0 1 -8-8v-256a8.011 8.011 0 0 1 8-8h34.23l6.18 18.53a8 8 0 0 0 7.59 5.47h48a8 8 0 0 0 7.59-5.47l6.18-18.53h34.23a8.011 8.011 0 0 1 8 8zm.85-278.3a120.016 120.016 0 1 1 15.15 74.16v-51.86a24.022 24.022 0 0 0 -15.15-22.3z">
            <animate  attributeName="opacity" from="1"  to="0" dur="2s" repeatCount="indefinite" />
        
        </path>
        
        <path stroke-width="12px" stroke="#9400D3" fill="#9400D3" d="m304 240a24.039 24.039 0 0 0 22.624-16h25.376a8 8 0 0 0 0-16h-25.376a24.119 24.119 0 0 0 -14.624-14.624v-57.376a8 8 0 0 0 -16 0v57.376a24 24 0 0 0 8 46.624zm0-32a8 8 0 1 1 -8 8 8.009 8.009 0 0 1 8-8z">
            <animate  attributeName="opacity" from="1"  to="0" dur="2s" repeatCount="indefinite" />
        
        </path>
        <path stroke-width="12px" stroke="#9400D3" fill="#9400D3" d="m490.94 52.69-22.63-22.63a48.043 48.043 0 0 0 -67.88 0l-5.66 5.66a8 8 0 0 0 0 11.31l79.2 79.2a8 8 0 0 0 11.31 0l5.66-5.66a48.043 48.043 0 0 0 0-67.88zm-11.31 56.56-67.88-67.88a32.034 32.034 0 0 1 45.25 0l22.63 22.63a32.043 32.043 0 0 1 0 45.25z">
            <animate  attributeName="opacity" from="1"  to="0" dur="2s" repeatCount="indefinite" />
        
        </path>
        <path stroke-width="12px" stroke="#9400D3" fill="#9400D3" d="m123.146 126.226a8 8 0 0 0 11.315 0l79.2-79.2a8 8 0 0 0 0-11.314l-5.661-5.652a48 48 0 0 0 -67.883 0l-22.627 22.626a48.056 48.056 0 0 0 0 67.883zm5.659-62.226 22.627-22.627a32 32 0 0 1 45.254 0l-67.882 67.882a32.034 32.034 0 0 1 .001-45.255z">
            <animate  attributeName="opacity" from="1"  to="0" dur="2s" repeatCount="indefinite" />
        
        </path>
        
    </g>
</svg>