<svg height="120" version="1.1" width="140"
    xmlns="http://www.w3.org/2000/svg"
    xmlns:xlink="http://www.w3.org/1999/xlink" style="overflow: hidden; position: absolute;">
    <rect x="14" y="21" width="98" height="87" rx="0" ry="0" fill="#000000" stroke="#000000" class="draw2d_shape_composite_Group" stroke-opacity="0" stroke-width="1" fill-opacity="0" stroke-dasharray="none" opacity="1" style="-webkit-tap-highlight-color: rgba(0, 0, 0, 0); opacity: 1; cursor: default;"></rect>
    <rect x="97" y="21" width="14" height="22" rx="0" ry="0" fill="#5d9bda" stroke="#1b1b1b" class="draw2d_shape_basic_Rectangle" stroke-opacity="1" stroke-width="1" fill-opacity="1" stroke-dasharray="none" opacity="1" transform="matrix(1,0,0,1,0,0)" style="-webkit-tap-highlight-color: rgba(0, 0, 0, 0); opacity: 1; cursor: move;"></rect>
    <rect x="102" y="86" width="10" height="22" rx="0" ry="0" fill="#5d9bda" stroke="#1b1b1b" class="draw2d_shape_basic_Rectangle" stroke-opacity="1" stroke-width="1" fill-opacity="1" stroke-dasharray="none" opacity="1" transform="matrix(1,0,0,1,0,0)" style="-webkit-tap-highlight-color: rgba(0, 0, 0, 0); opacity: 1; cursor: move;"></rect>
    <rect x="14" y="21" width="88" height="87" rx="0" ry="0" fill="#5d9bda" stroke="#1b1b1b" class="draw2d_shape_basic_Rectangle" stroke-opacity="1" stroke-width="1" fill-opacity="1" stroke-dasharray="none" opacity="1" transform="matrix(1,0,0,1,0,0)" style="-webkit-tap-highlight-color: rgba(0, 0, 0, 0); opacity: 1; cursor: move;"></rect>
    <rect x="75" y="34" width="14" height="60" rx="0" ry="0" fill="#5d9bda" stroke="#1b1b1b" class="draw2d_shape_basic_Rectangle" stroke-opacity="1" stroke-width="1" fill-opacity="1" stroke-dasharray="none" opacity="1" transform="matrix(1,0,0,1,0,0)" style="-webkit-tap-highlight-color: rgba(0, 0, 0, 0); opacity: 1; cursor: move;"></rect>
    <rect x="27" y="33" width="12" height="61" rx="0" ry="0" fill="#5d9bda" stroke="#1b1b1b" class="draw2d_shape_basic_Rectangle" stroke-opacity="1" stroke-width="1" fill-opacity="1" stroke-dasharray="none" opacity="1" transform="matrix(1,0,0,1,0,0)" style="-webkit-tap-highlight-color: rgba(0, 0, 0, 0); opacity: 1; cursor: move;"></rect>
    <rect x="51" y="34" width="13" height="60" rx="0" ry="0" fill="#5d9bda" stroke="#1b1b1b" class="draw2d_shape_basic_Rectangle" stroke-opacity="1" stroke-width="1" fill-opacity="1" stroke-dasharray="none" opacity="1" transform="matrix(1,0,0,1,0,0)" style="-webkit-tap-highlight-color: rgba(0, 0, 0, 0); opacity: 1; cursor: move;"></rect>
    <ellipse cx="32.5" cy="63.5" rx="4.5" ry="4.5" fill="#aad491" stroke="#1b1b1b" class="draw2d_shape_basic_Oval" x="28" y="59" stroke-opacity="1" stroke-width="1" fill-opacity="1" stroke-dasharray="none" opacity="1" style="-webkit-tap-highlight-color: rgba(0, 0, 0, 0); opacity: 1; cursor: move;"></ellipse>
    <ellipse cx="57.5" cy="63.5" rx="4.5" ry="4.5" fill="#aad491" stroke="#1b1b1b" class="draw2d_shape_basic_Oval" x="53" y="59" stroke-opacity="1" stroke-width="1" fill-opacity="1" stroke-dasharray="none" opacity="1" style="-webkit-tap-highlight-color: rgba(0, 0, 0, 0); opacity: 1; cursor: move;"></ellipse>
    <ellipse cx="81.5" cy="64.5" rx="4.5" ry="4.5" fill="#aad491" stroke="#1b1b1b" class="draw2d_shape_basic_Oval" x="77" y="60" stroke-opacity="1" stroke-width="1" fill-opacity="1" stroke-dasharray="none" opacity="1" style="-webkit-tap-highlight-color: rgba(0, 0, 0, 0); opacity: 1; cursor: move;"></ellipse>
    <desc style="-webkit-tap-highlight-color: rgba(0, 0, 0, 0);">Created with Raphaël 2.1.4</desc>
    <defs style="-webkit-tap-highlight-color: rgba(0, 0, 0, 0);"></defs>
</svg>