<svg height="95" version="1.1" width="115"
    xmlns="http://www.w3.org/2000/svg"
    xmlns:xlink="http://www.w3.org/1999/xlink" style="overflow: hidden; position: absolute;">
  <rect x="10" y="10" width="98" height="81" rx="0" ry="0" fill="#000000" stroke="#000000" class="draw2d_shape_composite_Group" stroke-opacity="0" stroke-width="1" fill-opacity="0" stroke-dasharray="none" opacity="1" style="-webkit-tap-highlight-color: rgba(0, 0, 0, 0); opacity: 1; cursor: default;"></rect>
  <rect x="10" y="74" width="23" height="17" rx="2" ry="2" fill="#AB876F" stroke="#1b1b1b" class="draw2d_shape_basic_Rectangle" stroke-opacity="1" stroke-width="1" fill-opacity="1" stroke-dasharray="none" opacity="1" transform="matrix(1,0,0,1,0,0)" style="-webkit-tap-highlight-color: rgba(0, 0, 0, 0); opacity: 1; cursor: move;"></rect>
  <rect x="86" y="73" width="22" height="18" rx="2" ry="2" fill="#AB876F" stroke="#1b1b1b" class="draw2d_shape_basic_Rectangle" stroke-opacity="1" stroke-width="1" fill-opacity="1" stroke-dasharray="none" opacity="1" transform="matrix(1,0,0,1,0,0)" style="-webkit-tap-highlight-color: rgba(0, 0, 0, 0); opacity: 1; cursor: move;"></rect>
  <rect x="10" y="10" width="98" height="72" rx="2" ry="2" fill="#AB876F" stroke="#1b1b1b" class="draw2d_shape_basic_Rectangle" stroke-opacity="1" stroke-width="1" fill-opacity="1" stroke-dasharray="none" opacity="1" transform="matrix(1,0,0,1,0,0)" style="-webkit-tap-highlight-color: rgba(0, 0, 0, 0); opacity: 1; cursor: move;"></rect>
  <rect x="25" y="57" width="66" height="12" rx="0" ry="0" fill="#AB876F" stroke="#1b1b1b" class="draw2d_shape_basic_Rectangle" stroke-opacity="1" stroke-width="1" fill-opacity="1" stroke-dasharray="none" opacity="1" transform="matrix(1,0,0,1,0,0)" style="-webkit-tap-highlight-color: rgba(0, 0, 0, 0); opacity: 1; cursor: move;"></rect>
  <rect x="25" y="39" width="66" height="12" rx="0" ry="0" fill="#AB876F" stroke="#1b1b1b" class="draw2d_shape_basic_Rectangle" stroke-opacity="1" stroke-width="1" fill-opacity="1" stroke-dasharray="none" opacity="1" transform="matrix(1,0,0,1,0,0)" style="-webkit-tap-highlight-color: rgba(0, 0, 0, 0); opacity: 1; cursor: move;"></rect>
  <rect x="26" y="20" width="65" height="12" rx="0" ry="0" fill="#AB876F" stroke="#1b1b1b" class="draw2d_shape_basic_Rectangle" stroke-opacity="1" stroke-width="1" fill-opacity="1" stroke-dasharray="none" opacity="1" transform="matrix(1,0,0,1,0,0)" style="-webkit-tap-highlight-color: rgba(0, 0, 0, 0); opacity: 1; cursor: move;"></rect>
  <ellipse cx="60.5" cy="62" rx="4.5" ry="4" fill="#aad491" stroke="#1b1b1b" class="draw2d_shape_basic_Oval" x="53" y="73" stroke-opacity="1" stroke-width="1" fill-opacity="1" stroke-dasharray="none" opacity="1" style="-webkit-tap-highlight-color: rgba(0, 0, 0, 0); opacity: 1; cursor: move;"></ellipse>
  <ellipse cx="60.5" cy="45" rx="4.5" ry="4" fill="#aad491" stroke="#1b1b1b" class="draw2d_shape_basic_Oval" x="53" y="55" stroke-opacity="1" stroke-width="1" fill-opacity="1" stroke-dasharray="none" opacity="1" style="-webkit-tap-highlight-color: rgba(0, 0, 0, 0); opacity: 1; cursor: move;"></ellipse>
  <ellipse cx="60.5" cy="26" rx="4.5" ry="4" fill="#aad491" stroke="#1b1b1b" class="draw2d_shape_basic_Oval" x="53" y="36" stroke-opacity="1" stroke-width="1" fill-opacity="1" stroke-dasharray="none" opacity="1" style="-webkit-tap-highlight-color: rgba(0, 0, 0, 0); opacity: 1; cursor: move;"></ellipse>
  <desc style="-webkit-tap-highlight-color: rgba(0, 0, 0, 0);">Created with Raphaël 2.1.4</desc>
  <defs style="-webkit-tap-highlight-color: rgba(0, 0, 0, 0);"></defs>
</svg>