<svg height="512" viewBox="0 0 512 512" width="512" xmlns="http://www.w3.org/2000/svg">
    <g>
        <path fill="#01ADEF" d="m168 208h-112a24.032 24.032 0 0 0 -24 24v208a24.032 24.032 0 0 0 24 24h112a24.032 24.032 0 0 0 24-24v-208a24.032 24.032 0 0 0 -24-24zm-35.1 16-2.67 8h-36.46l-2.67-8zm43.1 216a8.011 8.011 0 0 1 -8 8h-112a8.011 8.011 0 0 1 -8-8v-208a8.011 8.011 0 0 1 8-8h18.23l6.18 18.53a8 8 0 0 0 7.59 5.47h48a8 8 0 0 0 7.59-5.47l6.18-18.53h18.23a8.011 8.011 0 0 1 8 8z"/>
        <path fill="#01ADEF" d="m96 424h-32a8 8 0 0 0 0 16h32a8 8 0 0 0 0-16z"/>
        <path fill="#01ADEF" d="m128 424h-8a8 8 0 0 0 0 16h8a8 8 0 0 0 0-16z"/>
        <path fill="#01ADEF" d="m120 296.805v-.805a8 8 0 0 0 -16 0v.805a40 40 0 1 0 16 0zm-8 63.195a24 24 0 0 1 -8-46.624v14.624a8 8 0 0 0 16 0v-14.624a24 24 0 0 1 -8 46.624z"/>
        <path fill="#01ADEF" d="m272 48a8 8 0 0 0 -8 8v80a8 8 0 0 0 16 0v-80a8 8 0 0 0 -8-8z"/>
        <path fill="#01ADEF" d="m461.95 242.53-79.38-115.45a24.048 24.048 0 0 0 17.43-23.08v-16a24.032 24.032 0 0 0 -24-24h-53.45c-11.89-33.74-41.18-56-74.55-56a8 8 0 0 0 -8 8v32.68a47.99 47.99 0 0 0 0 94.64v32.68a8 8 0 0 0 8 8c33.37 0 62.66-22.26 74.55-56h9.24l76.02 110.57a47.953 47.953 0 0 0 .41 83.1l-76.57 118.33h-35.65v-16a8 8 0 0 0 -16 0v16h-8a32.036 32.036 0 0 0 -32 32v24a8 8 0 0 0 8 8h176a8 8 0 0 0 8-8v-24a32.036 32.036 0 0 0 -32-32h-17.29l79.32-122.59a47.921 47.921 0 0 0 -.08-74.88zm-221.95-115.54a32.008 32.008 0 0 1 0-61.98zm128-46.99h8a8.011 8.011 0 0 1 8 8v16a8.011 8.011 0 0 1 -8 8h-8zm-51.3 32a8.007 8.007 0 0 0 -7.7 5.83c-7.66 27.11-28.41 46.19-53 49.62v-142.9c24.59 3.43 45.34 22.51 53 49.62a8.007 8.007 0 0 0 7.7 5.83h35.3v32zm34.51 16h12.58l71.59 104.13c-1.12-.08-2.24-.13-3.38-.13a48.293 48.293 0 0 0 -8.73.81zm48.79 328a16.021 16.021 0 0 1 16 16v16h-160v-16a16.021 16.021 0 0 1 16-16zm-36.35-16h-12.94l72.95-112.74a47.73 47.73 0 0 0 8.34.74c1.43 0 2.85-.07 4.25-.2zm68.35-128a32 32 0 1 1 32-32 32.036 32.036 0 0 1 -32 32z"/>
        <path fill="#01ADEF" d="m432 304a24 24 0 1 0 -24-24 24.027 24.027 0 0 0 24 24zm0-32a8 8 0 1 1 -8 8 8.009 8.009 0 0 1 8-8z"/>
        <path fill="#01ADEF" d="m312 344v-152a8 8 0 0 0 -16 0v144h-88a8 8 0 0 0 0 16h96a8 8 0 0 0 8-8z"/>
        <circle fill="#01ADEF" cx="112" cy="184" r="8.5"/>
        <path fill="#01ADEF" d="m128 174.111a8 8 0 0 0 5.338-13.961 32 32 0 0 0 -42.672 0 8 8 0 0 0 10.671 11.922 16 16 0 0 1 21.33 0 7.973 7.973 0 0 0 5.333 2.039z"/>
        <path fill="#01ADEF" d="m85.335 154.183a40 40 0 0 1 53.33 0 8 8 0 1 0 10.67-11.922 56 56 0 0 0 -74.67 0 8 8 0 1 0 10.67 11.922z"/>
    </g>
</svg>