<svg height="512" viewBox="0 0 512 512" width="512" xmlns="http://www.w3.org/2000/svg">
    <g>
        <path fill="#01ADEF" d="m501.36 236.91-45.25-45.25a8 8 0 0 0 -11.32 0l-28.28 28.28-5.66-5.66 50.91-50.91a7.985 7.985 0 0 0 0-11.31l-33.94-33.94 5.66-5.66 5.66 5.66a8 8 0 0 0 11.31 0l45.26-45.26a8 8 0 0 0 0-11.31l-45.26-45.26a8 8 0 0 0 -11.31 0l-45.26 45.26a8 8 0 0 0 0 11.31l5.66 5.66-5.66 5.66-33.94-33.94a7.985 7.985 0 0 0 -11.31 0l-50.91 50.91-5.66-5.66 28.28-28.28a8 8 0 0 0 0-11.32l-45.25-45.25a8 8 0 0 0 -11.32 0l-29.65 29.65a8.278 8.278 0 0 0 -2.12-.29h-192a32.036 32.036 0 0 0 -32 32v400a32.036 32.036 0 0 0 32 32h192a32.036 32.036 0 0 0 32-32v-137c0-.2-.02-.4-.03-.6a64.223 64.223 0 0 0 2.18-54.61l14.59-14.59 33.95 33.94a8 8 0 0 0 11.31 0l50.91-50.91 5.66 5.65-28.29 28.29a8 8 0 0 0 0 11.31l45.26 45.26a8 8 0 0 0 11.31 0l90.51-90.51a8 8 0 0 0 0-11.32zm-56.57-203.65 33.95 33.95-33.95 33.94-33.94-33.94zm-33.94 56.57 11.32 11.32-5.66 5.65-11.31-11.31zm-141.42-62.22 33.94 33.94-79.19 79.2-33.94-33.95zm16.97 84.85-11.31 11.31-5.66-5.65 11.32-11.32zm-121.42-56.46-2.67 8h-52.47l-2.66-8zm83.02 416a16.021 16.021 0 0 1 -16 16h-192a16.021 16.021 0 0 1 -16-16v-400a16.021 16.021 0 0 1 16-16h50.31l6.18 18.53a7.991 7.991 0 0 0 7.59 5.47h64a8 8 0 0 0 7.59-5.47l6.17-18.53h36.57l-45.14 45.15a7.985 7.985 0 0 0 0 11.31l45.25 45.26a8 8 0 0 0 11.31 0l28.29-28.29 5.65 5.66-50.91 50.91a8 8 0 0 0 0 11.31l33.94 33.94-14.62 14.63a64.1 64.1 0 0 0 -70.23 13.66 8 8 0 0 0 0 11.31l33.94 33.94-16.97 16.97a8 8 0 0 0 11.32 11.32l16.97-16.97 33.94 33.94a7.985 7.985 0 0 0 5.65 2.34 7.876 7.876 0 0 0 1.2-.1zm-1.66-139.39-33.47-33.47h-.01v-.01l-33.47-33.46a48.011 48.011 0 0 1 66.95 66.94zm11.78-67.41-11.32-11.32 11.32-11.31 11.31 11.31zm62.22 16.97-90.51-90.51 124.45-124.45 90.51 90.51zm84.86-50.92-11.32 11.32-5.65-5.66 11.31-11.31zm0 90.51-33.95-33.94 79.2-79.19 33.94 33.94z"/>
        <path fill="#01ADEF" d="m400 352a8 8 0 0 0 -8 8v64h-104a8 8 0 0 0 0 16h112a8 8 0 0 0 8-8v-72a8 8 0 0 0 -8-8z"/>
        <path fill="#01ADEF" d="m136 352h-88a8 8 0 0 0 -8 8v32a8 8 0 0 0 8 8h88a8 8 0 0 0 8-8v-32a8 8 0 0 0 -8-8zm-8 32h-72v-16h72z"/>
        <path fill="#01ADEF" d="m136 408h-88a8 8 0 0 0 0 16h88a8 8 0 0 0 0-16z"/>
        <path fill="#01ADEF" d="m48 448h56a8 8 0 0 0 0-16h-56a8 8 0 0 0 0 16z"/>
        <path fill="#01ADEF" d="m136 456h-88a8 8 0 0 0 0 16h88a8 8 0 0 0 0-16z"/>
        <path fill="#01ADEF" d="m136 432h-8a8 8 0 0 0 0 16h8a8 8 0 0 0 0-16z"/>
        <circle fill="#01ADEF" cx="144" cy="200" r="8"/>
        <path fill="#01ADEF" d="m165.961 187.447a8 8 0 0 0 -.625-11.3 32 32 0 0 0 -42.672 0 8 8 0 0 0 10.671 11.922 16 16 0 0 1 21.33 0 8 8 0 0 0 11.3-.625z"/>
        <path fill="#01ADEF" d="m117.335 170.184a40 40 0 0 1 53.33 0 8 8 0 1 0 10.67-11.922 56 56 0 0 0 -74.67 0 8 8 0 0 0 10.67 11.922z"/>
        <path fill="#01ADEF" d="m314.2 186.485a8 8 0 1 0 11.314 0 8 8 0 0 0 -11.314 0z"/>
        <path fill="#01ADEF" d="m342.485 169.515a31.945 31.945 0 0 0 -20.849-9.324 8 8 0 0 0 -.886 15.975 16 16 0 0 1 15.083 15.083 8 8 0 0 0 7.98 7.558c.149 0 .3 0 .45-.013a8 8 0 0 0 7.546-8.43 31.952 31.952 0 0 0 -9.324-20.849z"/>
        <path fill="#01ADEF" d="m375.772 189.028a56 56 0 0 0 -52.8-52.8 8 8 0 1 0 -.886 15.974 40 40 0 0 1 37.71 37.71 8 8 0 0 0 7.981 7.558c.149 0 .3 0 .45-.013a8 8 0 0 0 7.545-8.429z"/>
    </g>
</svg>