<?xml version="1.0"?>
<svg xmlns="http://www.w3.org/2000/svg" width="512" height="512" viewBox="0 0 512 512">
    <g>
        <path stroke="#01ADEF" fill="#01ADEF" d="M176,248H64a24.032,24.032,0,0,0-24,24V480a24.032,24.032,0,0,0,24,24H176a24.032,24.032,0,0,0,24-24V272A24.032,24.032,0,0,0,176,248Zm-35.1,16-2.67,8H101.77l-2.67-8ZM184,480a8.011,8.011,0,0,1-8,8H64a8.011,8.011,0,0,1-8-8V272a8.011,8.011,0,0,1,8-8H82.23l6.18,18.53A8,8,0,0,0,96,288h48a8,8,0,0,0,7.59-5.47L157.77,264H176a8.011,8.011,0,0,1,8,8Z"/>
        <path stroke="#01ADEF" fill="#01ADEF" d="M104,464H72a8,8,0,0,0,0,16h32a8,8,0,0,0,0-16Z"/>
        <path stroke="#01ADEF" fill="#01ADEF" d="M136,464h-8a8,8,0,0,0,0,16h8a8,8,0,0,0,0-16Z"/>
        <path stroke="#01ADEF" fill="#01ADEF" d="M380.4,221.13a95.994,95.994,0,1,0-88.64.09,7.89,7.89,0,0,1,4.24,7.05V240h-8a8,8,0,0,0-8,8v24a8,8,0,0,0,8,8h8v24a24.032,24.032,0,0,0,24,24h32a24.032,24.032,0,0,0,24-24V280h8a8,8,0,0,0,8-8V248a8,8,0,0,0-8-8h-8V228.27A8.087,8.087,0,0,1,380.4,221.13ZM360,304a8.011,8.011,0,0,1-8,8H320a8.011,8.011,0,0,1-8-8V280h48Zm16-40H296v-8h80Zm-3.01-57.05A24.034,24.034,0,0,0,360,228.27V240H312V228.27a23.876,23.876,0,0,0-12.85-21.25,80,80,0,1,1,73.84-.07Z"/>
        <path stroke="#01ADEF" fill="#01ADEF" d="M312,104a8,8,0,0,0-8,8v72a8,8,0,0,0,16,0V112A8,8,0,0,0,312,104Z"/>
        <path stroke="#01ADEF" fill="#01ADEF" d="M368,184V112a8,8,0,0,0-16,0v72a8,8,0,0,0,16,0Z"/>
        <path stroke="#01ADEF" fill="#01ADEF" d="M336,128a8,8,0,0,0-8,8v16a8,8,0,0,0,16,0V136A8,8,0,0,0,336,128Z"/>
        <path stroke="#01ADEF" fill="#01ADEF" d="M224,128H208a8,8,0,0,0,0,16h16a8,8,0,0,0,0-16Z"/>
        <path stroke="#01ADEF" fill="#01ADEF" d="M464,128H448a8,8,0,0,0,0,16h16a8,8,0,0,0,0-16Z"/>
        <path stroke="#01ADEF" fill="#01ADEF" d="M251.147,232.167l11.314-11.314a8,8,0,0,0-11.315-11.314l-11.313,11.314a8,8,0,0,0,11.314,11.314Z"/>
        <path stroke="#01ADEF" fill="#01ADEF" d="M420.853,39.833,409.539,51.147a8,8,0,0,0,11.315,11.314l11.313-11.314a8,8,0,0,0-11.314-11.314Z"/>
        <path stroke="#01ADEF" fill="#01ADEF" d="M251.146,62.461a8,8,0,0,0,11.315-11.314L251.147,39.833a8,8,0,0,0-11.314,11.314Z"/>
        <path stroke="#01ADEF" fill="#01ADEF" d="M420.854,209.539a8,8,0,0,0-11.315,11.314l11.314,11.314a8,8,0,0,0,11.314-11.314Z"/>
        <path stroke="#01ADEF" fill="#01ADEF" d="M336,32a8,8,0,0,0,8-8V16a8,8,0,0,0-16,0v8A8,8,0,0,0,336,32Z"/>
        <path stroke="#01ADEF" fill="#01ADEF" d="M336,336a8,8,0,0,0-8,8v96H248a8,8,0,0,0,0,16h88a8,8,0,0,0,8-8V344A8,8,0,0,0,336,336Z"/>
        <path stroke="#01ADEF" fill="#01ADEF" d="M224,440h-8a8,8,0,0,0,0,16h8a8,8,0,0,0,0-16Z"/>
        <path stroke="#01ADEF" fill="#01ADEF" d="M120,192a64,64,0,1,0-64-64A64.072,64.072,0,0,0,120,192Zm0-112a48,48,0,1,1-48,48A48.054,48.054,0,0,1,120,80Z"/>
        <path stroke="#01ADEF" fill="#01ADEF" d="M112,208v24a8,8,0,0,0,16,0V208a8,8,0,0,0-16,0Z"/>
        <path stroke="#01ADEF" fill="#01ADEF" d="M120,304a40,40,0,0,0-24,72v32a16.021,16.021,0,0,0,16,16h16a16.021,16.021,0,0,0,16-16V376a40,40,0,0,0-24-72Zm8,104H112v-8h16l.01,8Zm3.99-43.21a8,8,0,0,0-3.99,6.93V384H112V371.72a8,8,0,0,0-3.99-6.93,24,24,0,1,1,23.98,0Z"/>
        <circle  stroke="#01ADEF" fill="#01ADEF" cx="120" cy="152" r="8"/>
        <path stroke="#01ADEF" fill="#01ADEF" d="M141.335,128.15a32,32,0,0,0-42.67,0,8,8,0,1,0,10.67,11.922,16,16,0,0,1,21.33,0,8,8,0,1,0,10.67-11.922Z"/>
        <path stroke="#01ADEF" fill="#01ADEF" d="M93.335,122.183a40,40,0,0,1,53.33,0,8,8,0,1,0,10.67-11.922,56,56,0,0,0-74.67,0,8,8,0,1,0,10.67,11.922Z"/>
    </g>
</svg>