<svg height="512" viewBox="0 0 512 512" width="512" xmlns="http://www.w3.org/2000/svg">
    <g>
        <path fill="#01ADEF" d="m472 328h-8v-16a8 8 0 0 0 -8-8h-8v-208a16.021 16.021 0 0 0 -16-16h-16a16.021 16.021 0 0 0 -16 16v208h-8a8 8 0 0 0 -8 8v16h-256v-16a8 8 0 0 0 -8-8h-8v-208a16.021 16.021 0 0 0 -16-16h-16a16.021 16.021 0 0 0 -16 16v208h-8a8 8 0 0 0 -8 8v16h-8a32.036 32.036 0 0 0 -32 32v72a8 8 0 0 0 8 8v16a8 8 0 0 0 8 8h64a8 8 0 0 0 8-8v-16h320v16a8 8 0 0 0 8 8h64a8 8 0 0 0 8-8v-16a8 8 0 0 0 8-8v-72a32.036 32.036 0 0 0 -32-32zm-56-232h16v208h-16zm-16 224h48v8h-48zm-320-224h16v208h-16zm-16 224h48v8h-48zm16 128h-48v-8h48zm400 0h-48v-8h48zm8-24h-464v-64a16.021 16.021 0 0 1 16-16h432a16.021 16.021 0 0 1 16 16z"/>
        <path fill="#01ADEF" d="m56 360a24 24 0 1 0 24 24 24.027 24.027 0 0 0 -24-24zm0 32a8 8 0 1 1 8-8 8.009 8.009 0 0 1 -8 8z"/>
        <path fill="#01ADEF" d="m112 408a24 24 0 1 0 -24-24 24.027 24.027 0 0 0 24 24zm0-32a8 8 0 1 1 -8 8 8.009 8.009 0 0 1 8-8z"/>
        <path fill="#01ADEF" d="m168 408a24 24 0 1 0 -24-24 24.027 24.027 0 0 0 24 24zm0-32a8 8 0 1 1 -8 8 8.009 8.009 0 0 1 8-8z"/>
        <path fill="#01ADEF" d="m376 408h96a8 8 0 0 0 8-8v-32a8 8 0 0 0 -8-8h-96a8 8 0 0 0 -8 8v32a8 8 0 0 0 8 8zm8-32h80v16h-80z"/>
        <path fill="#01ADEF" d="m288 376h64a8 8 0 0 0 0-16h-64a8 8 0 0 0 0 16z"/>
        <path fill="#01ADEF" d="m352 384h-24a8 8 0 0 0 0 16h24a8 8 0 0 0 0-16z"/>
        <path fill="#01ADEF" d="m256 152a24 24 0 1 0 24 24 24.027 24.027 0 0 0 -24-24zm0 32a8 8 0 1 1 8-8 8.009 8.009 0 0 1 -8 8z"/>
        <path fill="#01ADEF" d="m256 120a55.605 55.605 0 0 0 -39.6 16.406 8 8 0 0 0 11.321 11.308 39.994 39.994 0 0 1 56.56 0 8 8 0 0 0 11.319-11.308 55.605 55.605 0 0 0 -39.6-16.406z"/>
        <path fill="#01ADEF" d="m256 104a71.564 71.564 0 0 1 50.915 21.089 8 8 0 0 0 11.311-11.318 88.01 88.01 0 0 0 -124.452 0 8 8 0 0 0 11.311 11.318 71.564 71.564 0 0 1 50.915-21.089z"/>
        <path fill="#01ADEF" d="m256 240a96 96 0 1 0 -96-96 96.108 96.108 0 0 0 96 96zm0-176a80 80 0 1 1 -80 80 80.091 80.091 0 0 1 80-80z"/>
    </g>
</svg>