<svg version="1.2" xmlns="http://www.w3.org/2000/svg" viewBox="0 0 1000 1000" width="1000" height="1000">
	<title>bot_run-ai</title>
	<defs>
		<linearGradient id="g1" x1="267.2" y1="490.4" x2="1155.1" y2="490.4" gradientUnits="userSpaceOnUse">
			<stop offset="0" stop-color="#d51a58"/>
			<stop offset="1" stop-color="#e65e4b"/>
		</linearGradient>
		<linearGradient id="g2" x1="267.2" y1="490.4" x2="1135" y2="490.4" gradientUnits="userSpaceOnUse">
			<stop offset="0" stop-color="#c9164f"/>
			<stop offset=".3" stop-color="#d1284c"/>
		</linearGradient>
		<linearGradient id="g3" x1="-376.7" y1="948.5" x2="-36.7" y2="-320.3" gradientUnits="userSpaceOnUse">
			<stop offset="0" stop-color="#d51a58"/>
			<stop offset="1" stop-color="#f9a93c"/>
		</linearGradient>
	</defs>
	<style>
		.s0 { fill: #ffffff } 
		.s1 { fill: #ceddea } 
		.s2 { fill: url(#g1) } 
		.s3 { fill: url(#g2) } 
		.s4 { fill: url(#g3) } 
	</style>
	<g id="Layer 1">
		<path id="&lt;Path&gt;" class="s0" d="m1748.5 1727.6h-2500v-2500h2500z"/>
		<g id="&lt;Group&gt;">
			<path id="&lt;Compound Path&gt;" fill-rule="evenodd" class="s1" d="m-83.9 71c0 31.7-25.7 57.3-57.3 57.3-31.7 0-57.3-25.6-57.3-57.3 0-31.6 25.6-57.2 57.3-57.2 31.6 0 57.3 25.6 57.3 57.2zm-21.2 0c0-19.9-16.2-36-36.1-36-19.9 0-36 16.1-36 36 0 19.9 16.1 36.1 36 36.1 19.9 0 36.1-16.2 36.1-36.1z"/>
			<path id="&lt;Compound Path&gt;" fill-rule="evenodd" class="s1" d="m1283.6 803.1c0 25.9-21.1 47-47 47-26.1 0-47.1-21.1-47.1-47 0-26 21-47 47.1-47 25.9 0 47 21 47 47zm-22.4 0c0-13.6-11-24.7-24.6-24.7-13.7 0-24.7 11.1-24.7 24.7 0 13.6 11 24.6 24.7 24.6 13.6 0 24.6-11 24.6-24.6z"/>
			<path id="&lt;Compound Path&gt;" fill-rule="evenodd" class="s1" d="m1296.3 87.6c0 33.3-27 60.3-60.3 60.3-33.3 0-60.3-27-60.3-60.3 0-33.3 27-60.3 60.3-60.3 33.3 0 60.3 27 60.3 60.3zm-22.4 0c0-20.9-16.9-37.9-37.9-37.9-20.9 0-37.9 17-37.9 37.9 0 21 17 38 37.9 38 21 0 37.9-17 37.9-38z"/>
			<path id="&lt;Compound Path&gt;" fill-rule="evenodd" class="s1" d="m-163.2 850.1c0 33.3-27 60.3-60.2 60.3-33.4 0-60.3-27-60.3-60.3 0-33.4 26.9-60.3 60.3-60.3 33.2 0 60.2 26.9 60.2 60.3zm-22.3 0c0-20.9-17-37.9-37.9-37.9-21 0-38 17-38 37.9 0 20.9 17 37.9 38 37.9 20.9 0 37.9-17 37.9-37.9z"/>
			<circle id="&lt;Path&gt;" class="s1" cx="-248.8" cy="443.4" r="25.3"/>
			<circle id="&lt;Path&gt;" class="s1" cx="1236" cy="361.2" r="25.3"/>
			<circle id="&lt;Path&gt;" class="s1" cx="181.5" cy="-163.4" r="22.8"/>
			<g id="&lt;Group&gt;">
				<circle id="&lt;Path&gt;" class="s1" cx="928.5" cy="-115" r="22.3"/>
				<circle id="&lt;Path&gt;" class="s1" cx="988.5" cy="-115" r="22.3"/>
				<circle id="&lt;Path&gt;" class="s1" cx="1048.5" cy="-115" r="22.3"/>
			</g>
			<g id="&lt;Group&gt;">
				<circle id="&lt;Path&gt;" class="s1" cx="-156.4" cy="1024.8" r="22.3"/>
				<circle id="&lt;Path&gt;" class="s1" cx="-96.4" cy="1024.8" r="22.3"/>
				<circle id="&lt;Path&gt;" class="s1" cx="-36.4" cy="1024.8" r="22.3"/>
			</g>
			<circle id="&lt;Path&gt;" class="s1" cx="158.7" cy="1190.9" r="22.8"/>
		</g>
		<g id="&lt;Group&gt;">
			<g id="&lt;Group&gt;">
				<g id="&lt;Group&gt;">
					<path id="&lt;Path&gt;" class="s2" d="m1155.1 540c0 445.4-361.1 806.4-806.5 806.4q-33.6 0-66.5-2.7c18.9-31.6 35.7-64.6 50.3-98.8 0.2-0.6 0.5-1.2 0.7-1.8 40.6-96.2 63-202 63-313.1 0-161.3-47.3-311.6-128.9-437.6h886.5c0.5 9.7 1 19.5 1.2 29.3q0.2 9.1 0.2 18.3z"/>
					<path id="&lt;Path&gt;" class="s3" d="m1135 521.7c-9.9 402.4-339.2 725.5-743.9 725.5-19.8 0-39.4-0.8-58.7-2.3 0.2-0.6 0.5-1.2 0.7-1.8 40.6-96.2 63-202 63-313.1 0-161.3-47.3-311.6-128.9-437.6h866.6c0.5 9.7 1 19.5 1.2 29.3z"/>
					<circle id="&lt;Path&gt;" class="s4" cx="498.5" cy="503" r="656.6"/>
				</g>
			</g>
			<g id="&lt;Group&gt;">
				<g id="&lt;Group&gt;">
					<path id="&lt;Compound Path&gt;" fill-rule="evenodd" class="s0" d="m598.9 939.8c-23.8 3.9-58.7 4.4-100.2 4.4q0 0 0 0-0.1 0-0.2 0-0.1 0-0.2 0 0 0 0 0c-41.5 0-76.4-0.5-100.2-4.4-45.4-7.4-51-76.6-10.8-95.2 25.6-11.9 63.2-21.2 72.7-27.5q3.5-2.4 3.5-20.3-29.6-24.9-29.6-72.3c0-23.6 15.1-66.8 64.4-67q0 0 0 0 0.1 0 0.2 0 0.1 0 0.2 0 0 0 0 0c49.3 0.2 64.4 43.4 64.4 67q0 47.4-29.6 72.3 0 17.9 3.5 20.3c9.5 6.3 47.1 15.6 72.7 27.5 40.2 18.6 34.6 87.8-10.8 95.2zm-335-171.3c-23.7 3.8-58.7 4.3-100.2 4.4q-0.1 0-0.2 0 0 0-0.1 0c-41.5-0.1-76.5-0.6-100.2-4.4-45.4-7.5-51-76.6-10.9-95.2 25.6-11.9 63.2-21.3 72.8-27.6q3.5-2.3 3.4-20.2-29.5-25-29.5-72.4c0-23.5 15-66.7 64.4-67q0 0 0 0 0.1 0 0.1 0 0.1 0 0.2 0 0 0 0 0c49.3 0.3 64.4 43.5 64.4 67q0 47.4-29.5 72.4-0.1 17.9 3.4 20.2c9.6 6.3 47.2 15.7 72.8 27.6 40.1 18.6 34.5 87.7-10.9 95.2zm669.9 0c-23.7 3.8-58.7 4.3-100.2 4.4q-0.1 0-0.1 0-0.1 0-0.2 0c-41.5-0.1-76.5-0.6-100.2-4.4-45.4-7.5-51-76.6-10.9-95.2 25.6-11.9 63.2-21.3 72.8-27.6q3.5-2.3 3.4-20.2-29.5-25-29.5-72.4c0-23.5 15-66.7 64.4-67q0 0 0 0 0.1 0 0.2 0 0 0 0.1 0 0 0 0 0c49.4 0.3 64.4 43.5 64.4 67q0 47.4-29.5 72.4-0.1 17.9 3.4 20.2c9.6 6.3 47.2 15.7 72.8 27.6 40.1 18.6 34.5 87.7-10.9 95.2zm-445.6-219.3c0-5.7 4.6-10.3 10.3-10.3 5.7 0 10.3 4.6 10.3 10.3 0 5.7-4.6 10.3-10.3 10.3-5.7 0-10.3-4.6-10.3-10.3zm0 41.3c0-5.7 4.6-10.3 10.3-10.3 5.7 0 10.3 4.6 10.3 10.3 0 5.7-4.6 10.3-10.3 10.3-5.7 0-10.3-4.6-10.3-10.3zm0 41.2c0-5.7 4.6-10.3 10.3-10.3 5.7 0 10.3 4.6 10.3 10.3 0 5.7-4.6 10.3-10.3 10.3-5.7 0-10.3-4.6-10.3-10.3zm168-176.9c-87.1 87.1-228.3 87.1-315.4 0-87-87.1-87-228.2 0-315.3 87.1-87.1 228.3-87.1 315.4 0 87 87.1 87 228.2 0 315.3zm-411.2 5.4c-3.9-4.1-3.7-10.6 0.4-14.5 4.2-3.9 10.7-3.7 14.6 0.4 3.9 4.2 3.7 10.7-0.5 14.6-4.1 3.9-10.7 3.7-14.5-0.5zm-30.2 28.2c-3.9-4.1-3.6-10.7 0.5-14.6 4.2-3.8 10.7-3.6 14.6 0.5 3.9 4.2 3.7 10.7-0.5 14.6-4.1 3.9-10.7 3.7-14.6-0.5zm507.1-56.3c-3.9 4.1-10.4 4.3-14.5 0.4-4.2-3.9-4.4-10.4-0.5-14.5 3.9-4.2 10.4-4.4 14.5-0.5 4.2 3.9 4.4 10.4 0.5 14.6zm15.6 28.6c-4.2-3.9-4.4-10.4-0.5-14.6 3.9-4.1 10.4-4.3 14.6-0.4 4.1 3.9 4.3 10.4 0.4 14.5-3.8 4.2-10.4 4.4-14.5 0.5zm30.1 28.2c-4.2-3.9-4.4-10.4-0.5-14.6 3.9-4.1 10.4-4.3 14.6-0.5 4.1 3.9 4.3 10.5 0.5 14.6-3.9 4.2-10.5 4.4-14.6 0.5zm-477.5-70.9c3.9 4.1 3.7 10.6-0.5 14.5-4.1 3.9-10.6 3.7-14.5-0.4-3.9-4.2-3.7-10.7 0.5-14.6 4.1-3.9 10.6-3.7 14.5 0.5zm340.6-253.1c-73-73-191.4-73-264.4 0-73 73.1-73 191.4 0 264.5 73 73 191.4 73 264.4 0 73-73.1 73-191.4 0-264.5z"/>
				</g>
				<path id="&lt;Path&gt;" class="s0" d="m565.4 279.4c12.4 7.6 60.1 42.3 47.9 121-0.9 5.6-5.7 9.5-11.2 9.5q-0.8 0-1.7-0.1c-6.2-1-10.4-6.7-9.5-12.9 7.2-46-10.1-73.4-23.9-87.3 3.3 10.3 5.4 21.7 6.1 33.9 1.5 25.6-7.3 49.4-26.2 70.9-12.5 14-30.1 22.1-48.3 22.1q0 0-0.1 0c-18.2 0-35.8-8-48.3-22.1-19-21.4-27.8-45.3-26.3-70.9 0.7-12.2 2.8-23.7 6.1-34.1-13.8 13.8-31.2 41.2-24 87.5 1 6.2-3.2 12-9.4 12.9q-0.9 0.1-1.7 0.1c-5.5 0-10.3-3.9-11.2-9.5-12.2-78.7 35.5-113.4 47.9-121-37.5-4.6-58-39-64.1-59.5-1.8-6 1.6-12.3 7.6-14.1 6-1.8 12.3 1.7 14 7.6 0.6 1.9 13.8 43.6 50.9 44-11.4-9.3-19-20.3-22.6-33.1-8.2-28.5 6.8-54.2 7.5-55.3 3.2-5.4 10.1-7.2 15.4-4 5.4 3.2 7.2 10.1 4 15.5-0.2 0.4-10.7 18.9-5.2 37.7 3.2 10.9 11.2 20.2 24 27.7-2.4-5.2-3.7-11.1-3.7-17.3 0-20.8 15-33.7 39.1-33.7 24.1 0 39.1 12.9 39.1 33.7 0 6.2-1.3 12.1-3.7 17.3 12.8-7.5 20.8-16.8 24-27.7 5.5-18.9-5.1-37.6-5.2-37.7-3.1-5.4-1.4-12.3 4-15.5 5.4-3.1 12.2-1.4 15.4 4 0.7 1.1 15.7 26.8 7.5 55.3-3.6 12.8-11.2 23.8-22.6 33.1 37.2-0.4 50.3-42.1 50.9-44 1.8-6 8-9.4 14-7.6 6 1.8 9.4 8.1 7.6 14.1-6.1 20.5-26.6 54.9-64.1 59.5z"/>
			</g>
		</g>
	</g>
</svg>